REPO MEN 2010 TS H264 PSP

Format                           : MPEG-4
Format profile                   : Base Media / Version 2
Codec ID                         : mp42
File size                        : 337 MiB
Duration                         : 1h 45mn
Overall bit rate                 : 448 Kbps
Encoded date                     : UTC 2010-03-24 04:50:48
Tagged date                      : UTC 2010-03-24 04:51:17
Writing application              : mp4creator 1.6.1d

Video
ID                               : 1
Format                           : AVC
Format/Info                      : Advanced Video Codec
Format profile                   : Baseline@L1.3
Format settings, CABAC           : No
Format settings, ReFrames        : 1 frame
Codec ID                         : avc1
Codec ID/Info                    : Advanced Video Coding
Duration                         : 1h 45mn
Bit rate mode                    : Variable
Bit rate                         : 384 Kbps
Width                            : 480 pixels
Height                           : 272 pixels
Display aspect ratio             : 16:9
Original display aspect ratio    : 16:9
Frame rate mode                  : Constant
Frame rate                       : 24.000 fps
Resolution                       : 24 bits
Colorimetry                      : 4:2:0
Scan type                        : Progressive
Bits/(Pixel*Frame)               : 0.122
Stream size                      : 288 MiB (86%)
Encoded date                     : UTC 2010-03-24 04:50:48
Tagged date                      : UTC 2010-03-24 04:51:11

Audio
ID                               : 2
Format                           : AAC
Format/Info                      : Advanced Audio Codec
Format version                   : Version 4
Format profile                   : LC
Format settings, SBR             : Yes
Format settings, PS              : No
Codec ID                         : 40
Duration                         : 1h 45mn
Bit rate mode                    : Variable
Bit rate                         : 62.7 Kbps
Maximum bit rate                 : 112 Kbps
Channel(s)                       : 2 channels
Channel positions                : L R
Sampling rate                    : 48.0 KHz
Resolution                       : 16 bits
Stream size                      : 47.1 MiB (14%)
Encoded date                     : UTC 2010-03-24 04:51:12
Tagged date                      : UTC 2010-03-24 04:51:17

Set in the near future when artificial organs can be bought on credit, it revolves around a man who struggles to make the payments on a heart he has purchased. He must therefore go on the run before said ticker is repossessed.
 
http://www.imdb.com/title/tt1053424/

PLEASE SEED AND ENJOY THANKS 

NOTE-> This is a recode of IMAGINES 1.40GB version big thanks to IMAGINE for the original print thats all i done was recode it to a smaller file size

NOTE To view H264 files on you,re PC i recomend VLC media player or Media player classic

To burn MP4 H264 files to disc i recmend convertx to dvd click link below thanks
  
http://thepiratebay.org/torrent/5018839/VSO.Convert-X.to.DVD.3.5.3%28vice%29

screen shots
 
http://img530.imageshack.us/img530/4334/repomenh264vicemp4thumb.jpg